<?xml version="1.0" encoding="UTF-8" standalone="no"?>
<!-- Created with Vectornator (http://vectornator.io/) -->

<svg
   height="34.878185mm"
   stroke-miterlimit="10"
   style="clip-rule:evenodd;fill-rule:nonzero;stroke-linecap:round;stroke-linejoin:round;stroke-miterlimit:10"
   version="1.1"
   viewBox="0 0 848.13412 131.82303"
   width="224.40216mm"
   xmlSpace="preserve"
   id="svg29"
   sodipodiDocname="ia_logo_clasic-5937ae2a16b09331f632132c0a871040.svg"
   inkscapeExport-filename="/home/pvmezencev/projects/izhavia/app/assets/images/ia_logo_clasic.png"
   inkscapeExport-xdpi="17.4"
   inkscapeExport-ydpi="17.4"
   inkscapeVersion="1.1.2 (b8e25be833, 2022-02-05)"
   xmlnsInkscape="http://www.inkscape.org/namespaces/inkscape"
   xmlnsSodipodi="http://sodipodi.sourceforge.net/DTD/sodipodi-0.dtd"
   xmlns="http://www.w3.org/2000/svg"
   xmlnsSvg="http://www.w3.org/2000/svg"
   xmlnsRdf="http://www.w3.org/1999/02/22-rdf-syntax-ns#"
   xmlnsCc="http://creativecommons.org/ns#"
   xmlnsDc="http://purl.org/dc/elements/1.1/"
   xmlnsVectornator="http://vectornator.io"><metadata
   id="metadata33"><rdfRDF><ccWork
       rdfAbout=""><dcFormat>image/svg+xml</dcFormat><dcType
         rdfResource="http://purl.org/dc/dcmitype/StillImage" /></ccWork></rdfRDF></metadata><sodipodiNamedview
   pagecolor="#ffffff"
   bordercolor="#666666"
   borderopacity="1"
   objecttolerance="10"
   gridtolerance="10"
   guidetolerance="10"
   inkscapePageopacity="0"
   inkscapePageshadow="2"
   inkscapeWindow-width="1920"
   inkscapeWindow-height="1017"
   id="namedview31"
   showgrid="false"
   inkscapeZoom="0.44571612"
   inkscapeCx="578.84377"
   inkscapeCy="-127.88409"
   inkscapeWindow-x="-8"
   inkscapeWindow-y="-8"
   inkscapeWindow-maximized="1"
   inkscapeCurrent-layer="svg29"
   units="mm"
   width="200mm"
   inkscapePagecheckerboard="0"
   inkscapeDocument-units="mm"
   fit-margin-top="0"
   fit-margin-left="0"
   fit-margin-right="0"
   fit-margin-bottom="0" />
<defs
   id="defs2" />
<clipPath
   id="ArtboardFrame">
<rect
   height="1058.97"
   width="1103.67"
   x="0"
   y="0"
   id="rect4" />
</clipPath>
<g
   clip-path="url(#ArtboardFrame)"
   id="Untitled"
   vectornatorLayerName="Untitled"
   inkscapeExport-xdpi="22.07"
   inkscapeExport-ydpi="22.07"
   transform="translate(-125.213,-238.56796)">
<g
   id="g26"
   style="opacity:1">
<clipPath
   id="ClipPath">
<path
   d="M -1.57322,1.57322 H 1102.1 V 1060.54 H -1.57322 Z"
   id="path7"
   inkscapeConnector-curvature="0" />
</clipPath>
<g
   clip-path="url(#ClipPath)"
   id="g24">
<path
   d="m 191.125,259.629 20.776,-20.776 c 0.281,-0.282 0.683,-0.361 1.054,-0.209 0.369,0.154 0.595,0.492 0.595,0.892 v 42.519 h 42.518 c 0.4,0 0.741,0.228 0.894,0.596 0.154,0.369 0.074,0.771 -0.211,1.053 l -20.775,20.775 20.775,20.777 c 0.285,0.282 0.365,0.684 0.211,1.054 -0.153,0.367 -0.494,0.595 -0.894,0.595 H 213.55 v 42.519 c 0,0.398 -0.226,0.739 -0.595,0.892 -0.113,0.047 -0.228,0.071 -0.343,0.075 h -0.07 c -0.236,-0.008 -0.463,-0.107 -0.641,-0.285 l -20.776,-20.775 -20.775,20.775 c -0.179,0.179 -0.405,0.277 -0.641,0.285 h -0.07 c -0.114,-0.004 -0.23,-0.028 -0.343,-0.075 -0.369,-0.153 -0.596,-0.494 -0.596,-0.892 v -42.519 h -42.517 c -0.4,0 -0.741,-0.228 -0.894,-0.595 -0.049,-0.122 -0.075,-0.246 -0.076,-0.369 v -0.018 c 0.002,-0.245 0.101,-0.482 0.287,-0.667 L 146.275,304.479 125.5,283.704 c -0.186,-0.186 -0.285,-0.421 -0.287,-0.667 v -0.018 c 0.001,-0.123 0.027,-0.247 0.076,-0.368 0.153,-0.368 0.494,-0.596 0.894,-0.596 H 168.7 v -42.519 c 0,-0.4 0.227,-0.738 0.596,-0.892 0.37,-0.152 0.772,-0.073 1.054,0.209 z"
   id="path10"
   inkscapeConnector-curvature="0"
   style="opacity:1;fill:#ed1c24;fill-rule:evenodd;stroke:none" />
<path
   d="m 550.481,259.801 h -30.215 l -19.297,31.938 h -10.47 v -31.933 h -26.282 v 31.933 H 453.751 L 434.454,259.801 H 404.24 l 27.663,43 -28.584,46.352 h 30.183 l 20.489,-35.313 h 10.226 v 35.308 h 26.282 V 313.84 h 10.231 l 20.489,35.313 h 30.182 l -28.583,-46.352 z"
   id="path12"
   inkscapeConnector-curvature="0"
   style="opacity:1;fill:#231f20;fill-rule:nonzero;stroke:none" />
<path
   d="m 592.836,330.813 h -0.165 c -7.868,-0.064 -12.578,-3.603 -12.578,-9.497 0,-6.556 7.084,-10.054 13.966,-10.3 1.605,-0.057 4.863,-0.126 8.504,-0.126 6.06,0 13.188,0.089 15.403,0.114 -1.514,8.351 -10.999,19.809 -25.13,19.809 m 53.075,-5.373 -0.013,-31.471 c 0,-19.643 -10.778,-36.281 -43.91,-36.281 -26.762,0 -42.407,11.426 -45.689,30.166 l 28.225,0.128 c 1.387,-8.484 9.201,-10.727 17.325,-10.727 11.382,0 17.416,4.751 17.416,14.731 v 1.424 h -28.962 c -12.056,0 -22.801,3.858 -29.522,10.58 -5.042,5.066 -7.702,11.648 -7.69,19.019 0.026,7.613 2.801,14.335 8.033,19.401 6.277,6.073 15.57,9.383 26.301,9.383 0.485,0 0.968,0 1.465,-0.013 16.97,-0.458 28.224,-8.644 34.284,-17.148 -0.23,3.552 0.687,6.747 2.66,9.217 2.776,3.463 7.333,5.308 13.202,5.308 l 15.442,-0.012 v -20.649 h -4.659 c -0.917,0 -3.908,-0.217 -3.908,-3.056"
   id="path14"
   inkscapeConnector-curvature="0"
   style="opacity:1;fill:#231f20;fill-rule:nonzero;stroke:none" />
<path
   d="m 911.705,330.813 h -0.166 c -7.866,-0.064 -12.577,-3.603 -12.577,-9.497 0,-6.556 7.084,-10.054 13.966,-10.3 1.605,-0.057 4.862,-0.126 8.504,-0.126 6.059,0 13.188,0.089 15.404,0.114 -1.515,8.351 -11,19.809 -25.131,19.809 m 56.983,-2.317 c -0.917,0 -3.908,-0.217 -3.908,-3.056 l -0.013,-31.471 c 0,-19.643 -10.778,-36.281 -43.91,-36.281 -26.762,0 -42.407,11.426 -45.689,30.166 l 28.225,0.128 c 1.387,-8.484 9.201,-10.727 17.325,-10.727 11.382,0 17.416,4.751 17.416,14.731 v 1.424 h -28.962 c -12.056,0 -22.801,3.858 -29.522,10.58 -5.042,5.066 -7.702,11.648 -7.69,19.019 0.026,7.613 2.801,14.335 8.033,19.401 6.277,6.073 15.57,9.383 26.301,9.383 0.484,0 0.968,0 1.465,-0.013 16.97,-0.458 28.224,-8.644 34.283,-17.148 -0.228,3.552 0.688,6.747 2.662,9.217 2.774,3.463 7.332,5.308 13.201,5.308 l 15.442,-0.012 v -20.649 z"
   id="path16"
   inkscapeConnector-curvature="0"
   style="opacity:1;fill:#231f20;fill-rule:nonzero;stroke:none" />
<path
   d="m 717.024,330.33 h -23.526 v -17.212 h 22.495 c 8.81,0 12.921,2.814 12.921,8.848 0,5.308 -4.328,8.364 -11.89,8.364 m -23.526,-51.687 h 20.152 c 7.779,0 11.89,2.724 11.89,7.867 0,5.628 -4.226,8.365 -12.921,8.365 h -19.121 z m 45.193,24.443 c 9.548,-3.501 14.374,-9.777 14.374,-18.816 0,-15.773 -13.087,-24.468 -36.869,-24.468 h -48.987 v 89.344 h 36.969 v 0.012 h 15.392 c 0.382,0 0.739,0 1.095,-0.012 h 1.4 v -0.026 c 22.203,-0.598 34.386,-9.382 34.386,-24.901 0,-6.022 -1.973,-10.987 -5.831,-14.742 -2.915,-2.826 -6.913,-4.978 -11.929,-6.391"
   id="path18"
   inkscapeConnector-curvature="0"
   style="opacity:1;fill:#231f20;fill-rule:nonzero;stroke:none" />
<path
   d="m 370.55,259.801 -40.889,52.447 v -52.447 h -26.276 v 89.356 h 23.143 l 40.864,-52.404 v 52.404 h 26.289 v -89.356 z"
   id="path20"
   inkscapeConnector-curvature="0"
   style="opacity:1;fill:#231f20;fill-rule:nonzero;stroke:none" />
<path
   d="m 836.234,259.801 -40.89,52.447 v -52.447 h -26.275 v 89.356 h 23.143 l 40.863,-52.404 v 52.404 h 26.289 v -89.356 z"
   id="path22"
   inkscapeConnector-curvature="0"
   style="opacity:1;fill:#231f20;fill-rule:nonzero;stroke:none" />
</g>
</g>
</g>
</svg>
