<svg width="180" height="180" fill="none" xmlns="http://www.w3.org/2000/svg"><g clip-path="url(#a)"><rect width="180" height="180" rx="90" transform="matrix(-1 0 0 1 180 0)" fill="#2C3959"/><path d="M97.076 68.118h-.13c-3.538 0-6.824.317-9.792.938l-1.235.26.766-1.003c9.222-12.038 23.881-20.82 39.219-23.484l1.387-.239-3.856-22.09-1.387.238c-10.832 1.885-20.993 5.756-30.2 11.504-9.294 5.806-17.187 13.259-23.455 22.155-6.441 9.143-10.68 18.451-12.962 28.474-2.326 10.197-2.586 20.95-.802 32.872.845 5.626 4.398 14.342 11.858 21.932 5.719 5.82 15.641 12.767 30.387 12.774h.05c11.273 0 21.874-4.383 29.847-12.334 7.972-7.958 12.37-18.537 12.377-29.788.022-23.18-18.855-42.115-42.072-42.21zm-.303 61.793v-.173l-.007.173c-10.803-.014-19.592-8.795-19.585-19.577.008-10.774 8.803-19.541 19.6-19.541 10.81.007 19.598 8.796 19.591 19.577-.007 10.774-8.803 19.541-19.599 19.541z" fill="#4BFF7E"/><path d="m61.974 79.217-2.203 1.517c-3.791 2.614-7.517 5.654-11.38 9.308-7.49 7.084-17.224 21.101-22.077 39.191-2.592 9.647-3.517 19.411-2.758 29.022.873 11.071 4.008 21.917 9.308 32.23l.39.765h1.452l19.923-9.099-.628-1.293c-6.968-14.298-9.287-29.304-6.716-43.4 2.044-11.186 7.25-21.823 14.291-29.189l.39-.405v-28.64l.008-.007z" fill="#4BFF7E"/></g><defs><clipPath id="a"><rect width="180" height="180" rx="90" transform="matrix(-1 0 0 1 180 0)" fill="#fff"/></clipPath></defs></svg>